<?xml version="1.0" standalone="no"?>
<!DOCTYPE svg PUBLIC "-//W3C//DTD SVG 20010904//EN"
 "http://www.w3.org/TR/2001/REC-SVG-20010904/DTD/svg10.dtd">
<svg version="1.0" xmlns="http://www.w3.org/2000/svg"
 width="112.000000pt" height="112.000000pt" viewBox="0 0 112.000000 112.000000"
 preserveAspectRatio="xMidYMid meet">
<metadata>
Created by potrace 1.11, written by Peter Selinger 2001-2013
</metadata>
<g transform="translate(0.000000,112.000000) scale(0.100000,-0.100000)"
fill="#000000" stroke="none">
<path d="M285 1081 l-100 -36 -3 -370 -2 -371 262 -149 c145 -81 266 -150 270
-152 12 -6 48 16 48 30 0 7 25 22 55 34 44 17 55 18 55 7 0 -15 9 -17 34 -8
14 5 16 48 16 379 l0 374 -29 20 c-16 12 -31 21 -34 21 -2 0 -107 59 -233 130
-126 72 -231 129 -234 129 -3 -1 -50 -18 -105 -38z m352 -148 l243 -137 0
-332 0 -331 -52 -20 c-29 -11 -55 -17 -58 -12 -3 4 -5 153 -5 330 0 203 -3
326 -10 334 -5 7 -35 26 -65 42 -66 37 -358 202 -382 216 -14 9 -9 14 30 28
26 10 49 18 51 18 2 1 114 -61 248 -136z"/>
</g>
</svg>
